# Blender v2.90.1 OBJ File: ''
# www.blender.org
mtllib Cartel.mtl
o Cartel_Cube.005
v -0.392518 0.553493 0.619489
v -0.576587 -0.013015 0.619489
v -0.392518 0.553493 0.675358
v -0.576587 -0.013015 0.675358
v -0.445633 0.570751 0.619489
v -0.629702 0.004243 0.619489
v -0.445633 0.570751 0.675358
v -0.629702 0.004243 0.675358
v -0.005175 1.745612 -0.680000
v -0.425438 0.452175 -0.680000
v -0.005175 1.745612 0.680000
v -0.425438 0.452175 0.680000
v -0.058290 1.762870 -0.680000
v -0.478553 0.469433 -0.680000
v -0.058290 1.762870 0.680000
v -0.478553 0.469433 0.680000
v -0.392518 0.553493 -0.675358
v -0.576587 -0.013015 -0.675358
v -0.392518 0.553493 -0.619489
v -0.576587 -0.013015 -0.619489
v -0.445633 0.570751 -0.675358
v -0.629702 0.004243 -0.675358
v -0.445633 0.570751 -0.619489
v -0.629702 0.004243 -0.619489
v 0.445633 0.570751 -0.675358
v 0.629702 0.004243 -0.675358
v 0.445633 0.570751 -0.619489
v 0.629702 0.004243 -0.619489
v 0.392518 0.553493 -0.675358
v 0.576587 -0.013015 -0.675358
v 0.392518 0.553493 -0.619489
v 0.576587 -0.013015 -0.619489
v 0.058290 1.762870 -0.680000
v 0.478553 0.469433 -0.680000
v 0.058290 1.762870 0.680000
v 0.478553 0.469433 0.680000
v 0.005175 1.745612 -0.680000
v 0.425438 0.452175 -0.680000
v 0.005175 1.745612 0.680000
v 0.425438 0.452175 0.680000
v 0.445633 0.570751 0.619489
v 0.629702 0.004243 0.619489
v 0.445633 0.570751 0.675358
v 0.629702 0.004243 0.675358
v 0.392518 0.553493 0.619489
v 0.576587 -0.013015 0.619489
v 0.392518 0.553493 0.675358
v 0.576587 -0.013015 0.675358
vt 0.933459 0.500000
vt 1.800377 0.500000
vt 1.800377 1.366918
vt 0.933459 1.366918
vt 0.066541 1.366918
vt 0.933459 2.233836
vt 0.066541 2.233836
vt 0.066541 -1.233836
vt 0.933459 -1.233836
vt 0.933459 -0.366918
vt 0.066541 -0.366918
vt -0.800377 0.500000
vt 0.066541 0.500000
vt -0.800377 1.366918
vt 0.933459 0.500000
vt 1.800377 0.500000
vt 1.800377 1.366918
vt 0.933459 1.366918
vt 0.066541 1.366918
vt 0.933459 2.233836
vt 0.066541 2.233836
vt 0.066541 -1.233836
vt 0.933459 -1.233836
vt 0.933459 -0.366918
vt 0.066541 -0.366918
vt -0.800377 0.500000
vt 0.066541 0.500000
vt -0.800377 1.366918
vt 0.933459 0.500000
vt 1.800377 0.500000
vt 1.800377 1.366918
vt 0.933459 1.366918
vt 0.066541 1.366918
vt 0.933459 2.233836
vt 0.066541 2.233836
vt 0.066541 -1.233836
vt 0.933459 -1.233836
vt 0.933459 -0.366918
vt 0.066541 -0.366918
vt -0.800377 0.500000
vt 0.066541 0.500000
vt -0.800377 1.366918
vt 0.933459 0.500000
vt 1.800377 0.500000
vt 1.800377 1.366918
vt 0.933459 1.366918
vt 0.066541 1.366918
vt 0.933459 2.233836
vt 0.066541 2.233836
vt 0.066541 -1.233836
vt 0.933459 -1.233836
vt 0.933459 -0.366918
vt 0.066541 -0.366918
vt -0.800377 0.500000
vt 0.066541 0.500000
vt -0.800377 1.366918
vt 0.933459 0.500000
vt 1.800377 0.500000
vt 1.800377 1.366918
vt 0.933459 1.366918
vt 0.066541 1.366918
vt 0.933459 2.233836
vt 0.066541 2.233836
vt 0.066541 -1.233836
vt 0.933459 -1.233836
vt 0.933459 -0.366918
vt 0.066541 -0.366918
vt -0.800377 0.500000
vt 0.066541 0.500000
vt -0.800377 1.366918
vt 0.933459 0.500000
vt 1.800377 0.500000
vt 1.800377 1.366918
vt 0.933459 1.366918
vt 0.066541 1.366918
vt 0.933459 2.233836
vt 0.066541 2.233836
vt 0.066541 -1.233836
vt 0.933459 -1.233836
vt 0.933459 -0.366918
vt 0.066541 -0.366918
vt -0.800377 0.500000
vt 0.066541 0.500000
vt -0.800377 1.366918
vn 0.3090 0.9511 0.0000
vn 0.0000 0.0000 1.0000
vn -0.9511 0.3090 0.0000
vn -0.3090 -0.9511 0.0000
vn 0.9511 -0.3090 0.0000
vn 0.0000 0.0000 -1.0000
vn -0.3090 0.9511 0.0000
vn -0.9511 -0.3090 0.0000
vn 0.3090 -0.9511 0.0000
vn 0.9511 0.3090 0.0000
usemtl Material.006
s off
f 1/1/1 5/2/1 7/3/1 3/4/1
f 4/5/2 3/4/2 7/6/2 8/7/2
f 8/8/3 7/9/3 5/10/3 6/11/3
f 6/12/4 2/13/4 4/5/4 8/14/4
f 2/13/5 1/1/5 3/4/5 4/5/5
f 6/11/6 5/10/6 1/1/6 2/13/6
f 9/15/1 13/16/1 15/17/1 11/18/1
f 12/19/2 11/18/2 15/20/2 16/21/2
f 16/22/3 15/23/3 13/24/3 14/25/3
f 14/26/4 10/27/4 12/19/4 16/28/4
f 10/27/5 9/15/5 11/18/5 12/19/5
f 14/25/6 13/24/6 9/15/6 10/27/6
f 17/29/1 21/30/1 23/31/1 19/32/1
f 20/33/2 19/32/2 23/34/2 24/35/2
f 24/36/3 23/37/3 21/38/3 22/39/3
f 22/40/4 18/41/4 20/33/4 24/42/4
f 18/41/5 17/29/5 19/32/5 20/33/5
f 22/39/6 21/38/6 17/29/6 18/41/6
f 25/43/7 29/44/7 31/45/7 27/46/7
f 28/47/2 27/46/2 31/48/2 32/49/2
f 32/50/8 31/51/8 29/52/8 30/53/8
f 30/54/9 26/55/9 28/47/9 32/56/9
f 26/55/10 25/43/10 27/46/10 28/47/10
f 30/53/6 29/52/6 25/43/6 26/55/6
f 33/57/7 37/58/7 39/59/7 35/60/7
f 36/61/2 35/60/2 39/62/2 40/63/2
f 40/64/8 39/65/8 37/66/8 38/67/8
f 38/68/9 34/69/9 36/61/9 40/70/9
f 34/69/10 33/57/10 35/60/10 36/61/10
f 38/67/6 37/66/6 33/57/6 34/69/6
f 41/71/7 45/72/7 47/73/7 43/74/7
f 44/75/2 43/74/2 47/76/2 48/77/2
f 48/78/8 47/79/8 45/80/8 46/81/8
f 46/82/9 42/83/9 44/75/9 48/84/9
f 42/83/10 41/71/10 43/74/10 44/75/10
f 46/81/6 45/80/6 41/71/6 42/83/6
o Papel_Plano
v -0.079872 1.704595 0.600000
v -0.456804 0.565331 0.600000
v -0.079872 1.704595 -0.600000
v -0.456804 0.565331 -0.600000
vt 0.003179 1.003159
vt -0.003159 0.003179
vt 0.996821 -0.003159
vt 1.003159 0.996821
vn 0.9494 -0.3141 0.0000
usemtl Material.007
s off
f 49/85/11 50/86/11 52/87/11 51/88/11
o Papel.001_Plano.002
v 0.456803 0.565331 0.600000
v 0.079873 1.704595 0.600000
v 0.456803 0.565331 -0.600000
v 0.079873 1.704595 -0.600000
vt 1.000103 0.000103
vt 0.999897 1.000103
vt -0.000103 0.999897
vt 0.000103 -0.000103
vn -0.9494 -0.3141 0.0000
usemtl Material.009
s off
f 53/89/12 54/90/12 56/91/12 55/92/12
