# Blender v2.90.1 OBJ File: 'SmallCandle.blend'
# www.blender.org
mtllib SmallCandle.mtl
o SmallCandle_SmallCandleMesh
v -0.050480 0.108268 -0.020909
v -0.054639 0.108268 0.000000
v -0.040010 0.108268 -0.016573
v -0.043306 0.108268 0.000000
v -0.050480 0.108268 0.020909
v -0.040010 0.108268 0.016573
v -0.038636 0.108268 0.038636
v -0.030622 0.108268 0.030622
v -0.020909 0.108268 0.050480
v -0.016573 0.108268 0.040010
v -0.030622 0.108268 -0.030622
v -0.050480 0.108268 -0.020909
v -0.040010 0.108268 -0.016573
v -0.038636 0.108268 -0.038636
v -0.016573 0.108268 -0.040010
v -0.020909 0.108268 -0.050480
v 0.000000 0.108268 -0.043306
v 0.000000 0.108268 -0.054639
v 0.016573 0.108268 -0.040010
v 0.020909 0.108268 -0.050480
v 0.030622 0.108268 -0.030622
v 0.020909 0.108268 -0.050480
v 0.016573 0.108268 -0.040010
v 0.038636 0.108268 -0.038636
v 0.040010 0.108268 -0.016573
v 0.050480 0.108268 -0.020909
v 0.043306 0.108268 0.000000
v 0.054639 0.108268 0.000000
v 0.040010 0.108268 0.016573
v 0.050480 0.108268 0.020909
v 0.030622 0.108268 0.030622
v 0.050480 0.108268 0.020909
v 0.040010 0.108268 0.016573
v 0.038636 0.108268 0.038636
v 0.016573 0.108268 0.040010
v 0.020909 0.108268 0.050480
v 0.000000 0.108268 0.043306
v 0.000000 0.108268 0.054639
v -0.016573 0.108268 0.040010
v -0.020909 0.108268 0.050480
v 0.043180 0.028446 0.017886
v 0.051840 0.059067 0.000000
v 0.046738 0.028446 0.000000
v 0.047894 0.059067 0.019838
v 0.043306 0.108268 0.000000
v 0.033049 0.028446 0.033048
v 0.040010 0.108268 0.016573
v 0.036656 0.059067 0.036656
v 0.017886 0.028446 0.043180
v 0.030622 0.108268 0.030622
v 0.019838 0.059067 0.047893
v 0.000000 0.028446 0.046738
v 0.016573 0.108268 0.040010
v 0.000000 0.059067 0.051840
v 0.000000 0.108268 0.043306
v -0.017886 0.028446 0.043180
v 0.000000 0.059067 0.051840
v 0.000000 0.028446 0.046738
v -0.019838 0.059067 0.047894
v 0.000000 0.108268 0.043306
v -0.033049 0.028446 0.033049
v -0.016573 0.108268 0.040010
v -0.036656 0.059067 0.036656
v -0.043180 0.028446 0.017886
v -0.030622 0.108268 0.030622
v -0.047894 0.059067 0.019838
v -0.046738 0.028446 0.000000
v -0.040010 0.108268 0.016573
v -0.051840 0.059067 0.000000
v -0.043306 0.108268 0.000000
v -0.043180 0.028446 -0.017885
v -0.051840 0.059067 0.000000
v -0.046738 0.028446 0.000000
v -0.047894 0.059067 -0.019838
v -0.043306 0.108268 0.000000
v -0.033049 0.028446 -0.033048
v -0.040010 0.108268 -0.016573
v -0.036656 0.059067 -0.036656
v -0.017886 0.028446 -0.043180
v -0.030622 0.108268 -0.030622
v -0.019838 0.059067 -0.047894
v 0.000000 0.028446 -0.046738
v -0.016573 0.108268 -0.040010
v 0.000000 0.059067 -0.051840
v 0.000000 0.108268 -0.043306
v 0.017886 0.028446 -0.043180
v 0.000000 0.059067 -0.051840
v 0.000000 0.028446 -0.046738
v 0.019838 0.059067 -0.047894
v 0.000000 0.108268 -0.043306
v 0.033049 0.028446 -0.033048
v 0.016573 0.108268 -0.040010
v 0.036656 0.059067 -0.036656
v 0.043180 0.028446 -0.017885
v 0.030622 0.108268 -0.030622
v 0.047894 0.059067 -0.019838
v 0.046738 0.028446 0.000000
v 0.040010 0.108268 -0.016573
v 0.051840 0.059067 0.000000
v 0.043306 0.108268 0.000000
v 0.038636 0.108268 0.038636
v 0.062687 0.059067 0.025966
v 0.050480 0.108268 0.020909
v 0.047978 0.059067 0.047978
v 0.020909 0.108268 0.050480
v 0.058342 0.021262 0.024166
v 0.025966 0.059067 0.062687
v 0.000000 0.108268 0.054639
v 0.044653 0.021262 0.044653
v 0.000000 0.059067 0.067852
v -0.020909 0.108268 0.050480
v -0.025966 0.059067 0.062687
v 0.024166 0.021262 0.058342
v 0.000000 0.021262 0.063148
v -0.024166 0.021262 0.058342
v -0.021941 0.009440 0.052971
v 0.000000 0.009440 0.057336
v -0.016140 -0.000000 0.038966
v 0.000000 -0.000000 0.042176
v 0.021941 0.009440 0.052971
v 0.016140 -0.000000 0.038966
v 0.040542 0.009440 0.040543
v 0.029823 -0.000000 0.029823
v 0.052971 0.009440 0.021941
v 0.038966 -0.000000 0.016140
v -0.038636 0.108268 0.038636
v -0.025966 0.059067 0.062687
v -0.020909 0.108268 0.050480
v -0.047978 0.059067 0.047978
v -0.050480 0.108268 0.020909
v -0.024166 0.021262 0.058342
v -0.062687 0.059067 0.025966
v -0.054639 0.108268 0.000000
v -0.044653 0.021262 0.044653
v -0.067852 0.059067 0.000000
v -0.050480 0.108268 -0.020909
v -0.062687 0.059067 -0.025966
v -0.058342 0.021262 0.024166
v -0.063148 0.021262 0.000000
v -0.058341 0.021262 -0.024166
v -0.052971 0.009440 -0.021941
v -0.057336 0.009440 0.000000
v -0.038966 0.000000 -0.016140
v -0.042176 0.000000 0.000000
v -0.052971 0.009440 0.021941
v -0.038966 -0.000000 0.016140
v -0.040543 0.009440 0.040542
v -0.029823 -0.000000 0.029823
v -0.021941 0.009440 0.052971
v -0.016140 -0.000000 0.038966
v -0.038636 0.108268 -0.038636
v -0.062687 0.059067 -0.025966
v -0.050480 0.108268 -0.020909
v -0.047978 0.059067 -0.047978
v -0.020909 0.108268 -0.050480
v -0.058341 0.021262 -0.024166
v -0.025966 0.059067 -0.062687
v 0.000000 0.108268 -0.054639
v -0.044653 0.021262 -0.044653
v 0.000000 0.059067 -0.067852
v 0.020909 0.108268 -0.050480
v 0.025966 0.059067 -0.062687
v -0.024166 0.021262 -0.058342
v 0.000000 0.021262 -0.063148
v 0.024166 0.021262 -0.058341
v 0.021941 0.009440 -0.052971
v 0.000000 0.009440 -0.057336
v 0.016140 0.000000 -0.038966
v 0.000000 0.000000 -0.042176
v -0.021941 0.009440 -0.052971
v -0.016140 0.000000 -0.038966
v -0.040542 0.009440 -0.040543
v -0.029823 0.000000 -0.029823
v -0.052971 0.009440 -0.021941
v -0.038966 0.000000 -0.016140
v 0.038636 0.108268 -0.038636
v 0.025966 0.059067 -0.062687
v 0.020909 0.108268 -0.050480
v 0.047978 0.059067 -0.047978
v 0.050480 0.108268 -0.020909
v 0.024166 0.021262 -0.058341
v 0.062687 0.059067 -0.025966
v 0.054639 0.108268 0.000000
v 0.044653 0.021262 -0.044653
v 0.067852 0.059067 0.000000
v 0.050480 0.108268 0.020909
v 0.062687 0.059067 0.025966
v 0.058342 0.021262 -0.024166
v 0.063148 0.021262 0.000000
v 0.058342 0.021262 0.024166
v 0.052971 0.009440 0.021941
v 0.057336 0.009440 0.000000
v 0.038966 -0.000000 0.016140
v 0.042176 0.000000 0.000000
v 0.052971 0.009440 -0.021941
v 0.038966 0.000000 -0.016140
v 0.040543 0.009440 -0.040542
v 0.029823 0.000000 -0.029823
v 0.021941 0.009440 -0.052971
v 0.016140 0.000000 -0.038966
v 0.046738 0.028446 0.000000
v 0.043180 0.028446 -0.017885
v 0.000000 0.028446 0.000000
v 0.043180 0.028446 0.017886
v 0.033049 0.028446 -0.033048
v 0.033049 0.028446 0.033048
v 0.017886 0.028446 -0.043180
v 0.017886 0.028446 0.043180
v 0.000000 0.028446 -0.046738
v 0.000000 0.028446 0.046738
v -0.017886 0.028446 -0.043180
v -0.017886 0.028446 0.043180
v -0.033049 0.028446 -0.033048
v -0.033049 0.028446 0.033049
v -0.043180 0.028446 -0.017885
v -0.043180 0.028446 0.017886
v -0.046738 0.028446 0.000000
v 0.038966 0.000000 -0.016140
v 0.042176 0.000000 0.000000
v 0.000000 0.000000 0.000000
v 0.029823 0.000000 -0.029823
v 0.038966 -0.000000 0.016140
v 0.016140 0.000000 -0.038966
v 0.029823 -0.000000 0.029823
v 0.000000 0.000000 -0.042176
v 0.016140 -0.000000 0.038966
v -0.016140 0.000000 -0.038966
v 0.000000 -0.000000 0.042176
v -0.029823 0.000000 -0.029823
v -0.016140 -0.000000 0.038966
v -0.038966 0.000000 -0.016140
v -0.029823 -0.000000 0.029823
v -0.042176 0.000000 0.000000
v -0.038966 -0.000000 0.016140
vt 0.609863 0.306152
vt 0.695801 0.306152
vt 0.609863 0.367188
vt 0.695801 0.367188
vt 0.781738 0.306152
vt 0.781738 0.367188
vt 0.867676 0.306152
vt 0.867676 0.367188
vt 0.953613 0.306152
vt 0.953613 0.367188
vt 0.695801 0.367188
vt 0.609863 0.306152
vt 0.609863 0.367188
vt 0.695801 0.306152
vt 0.781738 0.367188
vt 0.781738 0.306152
vt 0.867676 0.367188
vt 0.867676 0.306152
vt 0.953613 0.367188
vt 0.953613 0.306152
vt 0.867676 0.367188
vt 0.953613 0.306152
vt 0.953613 0.367188
vt 0.867676 0.306152
vt 0.781738 0.367188
vt 0.781738 0.306152
vt 0.695801 0.367188
vt 0.695801 0.306152
vt 0.609863 0.367188
vt 0.609863 0.306152
vt 0.695801 0.367188
vt 0.609863 0.306152
vt 0.609863 0.367188
vt 0.695801 0.306152
vt 0.781738 0.367188
vt 0.781738 0.306152
vt 0.867676 0.367188
vt 0.867676 0.306152
vt 0.953613 0.367188
vt 0.953613 0.306152
vt 0.684082 0.097168
vt 0.755859 0.047852
vt 0.684082 0.047852
vt 0.755859 0.097168
vt 0.866211 0.047852
vt 0.684082 0.146484
vt 0.866211 0.097168
vt 0.755859 0.146484
vt 0.684082 0.197266
vt 0.866211 0.146484
vt 0.755859 0.197266
vt 0.684082 0.248047
vt 0.866211 0.197266
vt 0.755859 0.248047
vt 0.866211 0.248047
vt 0.684082 0.097168
vt 0.755859 0.047852
vt 0.684082 0.047852
vt 0.755859 0.097168
vt 0.866211 0.047852
vt 0.684082 0.146484
vt 0.866211 0.097168
vt 0.755859 0.146484
vt 0.684082 0.197266
vt 0.866211 0.146484
vt 0.755859 0.197266
vt 0.684082 0.248047
vt 0.866211 0.197266
vt 0.755859 0.248047
vt 0.866211 0.248047
vt 0.684082 0.197266
vt 0.755859 0.248047
vt 0.684082 0.248047
vt 0.755859 0.197266
vt 0.866211 0.248047
vt 0.684082 0.146484
vt 0.866211 0.197266
vt 0.755859 0.146484
vt 0.684082 0.097168
vt 0.866211 0.146484
vt 0.755859 0.097168
vt 0.684082 0.047852
vt 0.866211 0.097168
vt 0.755859 0.047852
vt 0.866211 0.047852
vt 0.684082 0.097168
vt 0.755859 0.047852
vt 0.684082 0.047852
vt 0.755859 0.097168
vt 0.866211 0.047852
vt 0.684082 0.146484
vt 0.866211 0.097168
vt 0.755859 0.146484
vt 0.684082 0.197266
vt 0.866211 0.146484
vt 0.755859 0.197266
vt 0.684082 0.248047
vt 0.866211 0.197266
vt 0.755859 0.248047
vt 0.866211 0.248047
vt 0.866211 0.097168
vt 0.755859 0.047852
vt 0.866211 0.047852
vt 0.755859 0.097168
vt 0.866211 0.146484
vt 0.684082 0.047852
vt 0.755859 0.146484
vt 0.866211 0.197266
vt 0.684082 0.097168
vt 0.755859 0.197266
vt 0.866211 0.248047
vt 0.755859 0.248047
vt 0.684082 0.146484
vt 0.684082 0.197266
vt 0.684082 0.248047
vt 0.642578 0.248047
vt 0.642578 0.197266
vt 0.601562 0.248047
vt 0.601562 0.197266
vt 0.642578 0.146484
vt 0.601562 0.146484
vt 0.642578 0.097168
vt 0.601562 0.097168
vt 0.642578 0.047852
vt 0.601562 0.047852
vt 0.866211 0.097168
vt 0.755859 0.047852
vt 0.866211 0.047852
vt 0.755859 0.097168
vt 0.866211 0.146484
vt 0.684082 0.047852
vt 0.755859 0.146484
vt 0.866211 0.197266
vt 0.684082 0.097168
vt 0.755859 0.197266
vt 0.866211 0.248047
vt 0.755859 0.248047
vt 0.684082 0.146484
vt 0.684082 0.197266
vt 0.684082 0.248047
vt 0.642578 0.248047
vt 0.642578 0.197266
vt 0.601562 0.248047
vt 0.601562 0.197266
vt 0.642578 0.146484
vt 0.601562 0.146484
vt 0.642578 0.097168
vt 0.601562 0.097168
vt 0.642578 0.047852
vt 0.601562 0.047852
vt 0.866211 0.097168
vt 0.755859 0.047852
vt 0.866211 0.047852
vt 0.755859 0.097168
vt 0.866211 0.146484
vt 0.684082 0.047852
vt 0.755859 0.146484
vt 0.866211 0.197266
vt 0.684082 0.097168
vt 0.755859 0.197266
vt 0.866211 0.248047
vt 0.755859 0.248047
vt 0.684082 0.146484
vt 0.684082 0.197266
vt 0.684082 0.248047
vt 0.642578 0.248047
vt 0.642578 0.197266
vt 0.601562 0.248047
vt 0.601562 0.197266
vt 0.642578 0.146484
vt 0.601562 0.146484
vt 0.642578 0.097168
vt 0.601562 0.097168
vt 0.642578 0.047852
vt 0.601562 0.047852
vt 0.866211 0.097168
vt 0.755859 0.047852
vt 0.866211 0.047852
vt 0.755859 0.097168
vt 0.866211 0.146484
vt 0.684082 0.047852
vt 0.755859 0.146484
vt 0.866211 0.197266
vt 0.684082 0.097168
vt 0.755859 0.197266
vt 0.866211 0.248047
vt 0.755859 0.248047
vt 0.684082 0.146484
vt 0.684082 0.197266
vt 0.684082 0.248047
vt 0.642578 0.248047
vt 0.642578 0.197266
vt 0.601562 0.248047
vt 0.601562 0.197266
vt 0.642578 0.146484
vt 0.601562 0.146484
vt 0.642578 0.097168
vt 0.601562 0.097168
vt 0.642578 0.047852
vt 0.601562 0.047852
vt 0.709961 0.451172
vt 0.805664 0.470215
vt 0.709961 0.701172
vt 0.614258 0.470215
vt 0.887207 0.524170
vt 0.532715 0.524170
vt 0.941406 0.605469
vt 0.478760 0.605469
vt 0.960449 0.701172
vt 0.459717 0.701172
vt 0.941406 0.796997
vt 0.478760 0.796997
vt 0.887207 0.878235
vt 0.532715 0.878235
vt 0.805664 0.932495
vt 0.614258 0.932495
vt 0.709961 0.951569
vt 0.941406 0.604492
vt 0.960449 0.700684
vt 0.708984 0.700684
vt 0.887207 0.522949
vt 0.941406 0.796875
vt 0.805176 0.468750
vt 0.887207 0.878479
vt 0.708984 0.449219
vt 0.805176 0.932983
vt 0.612793 0.468750
vt 0.708984 0.952087
vt 0.531250 0.522949
vt 0.612793 0.932983
vt 0.477051 0.604492
vt 0.531250 0.878479
vt 0.457764 0.700684
vt 0.477051 0.796875
vn -0.0000 1.0000 0.0000
vn -0.7240 0.6217 -0.2990
vn -0.9992 -0.0393 0.0000
vn -0.7847 0.6199 -0.0000
vn -0.9217 -0.0394 -0.3860
vn -0.9849 -0.1733 0.0000
vn -0.5557 0.6183 -0.5557
vn -0.9101 -0.1726 -0.3766
vn -0.7066 -0.0393 -0.7066
vn -0.2990 0.6217 -0.7240
vn -0.6963 -0.1740 -0.6963
vn -0.3860 -0.0394 -0.9217
vn 0.0000 0.6199 -0.7847
vn -0.3766 -0.1726 -0.9102
vn 0.0000 -0.0393 -0.9992
vn 0.0000 -0.1733 -0.9849
vn 0.2990 0.6217 -0.7240
vn 0.3860 -0.0394 -0.9217
vn 0.5557 0.6183 -0.5557
vn 0.3766 -0.1727 -0.9101
vn 0.7066 -0.0393 -0.7066
vn 0.7240 0.6217 -0.2990
vn 0.6963 -0.1740 -0.6963
vn 0.9217 -0.0394 -0.3860
vn 0.7847 0.6199 -0.0000
vn 0.9102 -0.1725 -0.3766
vn 0.9992 -0.0393 0.0000
vn 0.9849 -0.1733 0.0000
vn 0.7240 0.6217 0.2990
vn 0.9217 -0.0394 0.3860
vn 0.5557 0.6183 0.5557
vn 0.9101 -0.1726 0.3766
vn 0.7066 -0.0393 0.7066
vn 0.2990 0.6217 0.7240
vn 0.6963 -0.1739 0.6963
vn 0.3860 -0.0394 0.9217
vn 0.0000 0.6199 0.7847
vn 0.3766 -0.1726 0.9101
vn -0.0000 -0.0393 0.9992
vn -0.0000 -0.1733 0.9849
vn -0.2990 0.6217 0.7240
vn 0.0000 -0.0394 0.9992
vn -0.3860 -0.0394 0.9217
vn -0.5557 0.6183 0.5557
vn -0.3766 -0.1726 0.9101
vn -0.7066 -0.0393 0.7066
vn -0.7240 0.6217 0.2990
vn -0.6963 -0.1740 0.6963
vn -0.9217 -0.0394 0.3860
vn -0.9101 -0.1726 0.3766
vn 0.6830 0.2590 0.6830
vn 0.9217 0.0867 0.3781
vn 0.8915 0.2603 0.3708
vn 0.7044 0.0871 0.7044
vn 0.3708 0.2603 0.8915
vn 0.9048 -0.1967 0.3777
vn 0.3781 0.0867 0.9217
vn 0.0000 0.2594 0.9658
vn 0.6933 -0.1970 0.6933
vn -0.0000 0.0869 0.9962
vn -0.3708 0.2604 0.8915
vn -0.3782 0.0867 0.9217
vn 0.3777 -0.1967 0.9048
vn -0.0000 -0.1976 0.9803
vn -0.3777 -0.1967 0.9048
vn -0.2838 -0.6621 0.6936
vn -0.0000 -0.6624 0.7491
vn -0.1180 -0.9518 0.2832
vn -0.0000 -0.9518 0.3068
vn 0.2838 -0.6621 0.6936
vn 0.1180 -0.9518 0.2832
vn 0.5291 -0.6634 0.5291
vn 0.2199 -0.9504 0.2199
vn 0.6936 -0.6621 0.2838
vn 0.2832 -0.9518 0.1180
vn -0.6830 0.2587 0.6830
vn -0.3781 0.0867 0.9217
vn -0.3708 0.2603 0.8915
vn -0.7044 0.0871 0.7044
vn -0.8915 0.2603 0.3708
vn -0.9217 0.0867 0.3781
vn -0.9658 0.2594 0.0000
vn -0.6933 -0.1970 0.6933
vn -0.9962 0.0869 -0.0000
vn -0.8915 0.2604 -0.3708
vn -0.9217 0.0867 -0.3781
vn -0.9048 -0.1967 0.3777
vn -0.9803 -0.1976 -0.0000
vn -0.9048 -0.1967 -0.3777
vn -0.6936 -0.6621 -0.2838
vn -0.7491 -0.6624 -0.0000
vn -0.2832 -0.9518 -0.1180
vn -0.3068 -0.9518 -0.0000
vn -0.6936 -0.6621 0.2838
vn -0.2832 -0.9518 0.1180
vn -0.5291 -0.6634 0.5291
vn -0.2199 -0.9504 0.2199
vn -0.6829 0.2593 -0.6829
vn -0.8915 0.2603 -0.3708
vn -0.7044 0.0871 -0.7044
vn -0.3708 0.2603 -0.8915
vn -0.3781 0.0867 -0.9217
vn -0.0000 0.2594 -0.9658
vn -0.6933 -0.1970 -0.6933
vn 0.0000 0.0869 -0.9962
vn 0.3708 0.2604 -0.8915
vn 0.3781 0.0867 -0.9217
vn -0.3777 -0.1967 -0.9048
vn 0.0000 -0.1976 -0.9803
vn 0.3777 -0.1967 -0.9048
vn 0.2838 -0.6621 -0.6936
vn 0.0000 -0.6624 -0.7491
vn 0.1180 -0.9518 -0.2832
vn 0.0000 -0.9518 -0.3068
vn -0.2838 -0.6621 -0.6936
vn -0.1180 -0.9518 -0.2832
vn -0.5291 -0.6634 -0.5291
vn -0.2199 -0.9504 -0.2199
vn 0.6829 0.2593 -0.6829
vn 0.3708 0.2603 -0.8915
vn 0.7044 0.0871 -0.7044
vn 0.8915 0.2603 -0.3708
vn 0.9217 0.0867 -0.3781
vn 0.9658 0.2594 -0.0000
vn 0.6933 -0.1970 -0.6933
vn 0.9962 0.0869 0.0000
vn 0.8915 0.2604 0.3708
vn 0.9217 0.0867 0.3782
vn 0.9048 -0.1967 -0.3777
vn 0.9803 -0.1976 0.0000
vn 0.7491 -0.6624 0.0000
vn 0.3068 -0.9518 0.0000
vn 0.6936 -0.6621 -0.2838
vn 0.2832 -0.9518 -0.1180
vn 0.5291 -0.6634 -0.5291
vn 0.2199 -0.9504 -0.2199
vn -0.7240 0.6217 0.2991
vn -0.7240 0.6217 -0.2991
vn -0.2991 0.6217 -0.7240
vn 0.2991 0.6217 -0.7240
vn 0.7240 0.6217 0.2991
vn 0.7240 0.6217 -0.2991
vn 0.0000 -1.0000 -0.0000
usemtl SmallCandle
s 1
f 1/1/1 2/2/1 3/3/1
f 3/3/1 2/2/1 4/4/1
f 2/2/1 5/5/1 4/4/1
f 4/4/1 5/5/1 6/6/1
f 5/5/1 7/7/1 6/6/1
f 6/6/1 7/7/1 8/8/1
f 7/7/1 9/9/1 8/8/1
f 8/8/1 9/9/1 10/10/1
f 11/11/1 12/12/1 13/13/1
f 14/14/1 12/12/1 11/11/1
f 15/15/1 14/14/1 11/11/1
f 16/16/1 14/14/1 15/15/1
f 17/17/1 16/16/1 15/15/1
f 18/18/1 16/16/1 17/17/1
f 19/19/1 18/18/1 17/17/1
f 20/20/1 18/18/1 19/19/1
f 21/21/1 22/22/1 23/23/1
f 24/24/1 22/22/1 21/21/1
f 25/25/1 24/24/1 21/21/1
f 26/26/1 24/24/1 25/25/1
f 27/27/1 26/26/1 25/25/1
f 28/28/1 26/26/1 27/27/1
f 29/29/1 28/28/1 27/27/1
f 30/30/1 28/28/1 29/29/1
f 31/31/1 32/32/1 33/33/1
f 34/34/1 32/32/1 31/31/1
f 35/35/1 34/34/1 31/31/1
f 36/36/1 34/34/1 35/35/1
f 37/37/1 36/36/1 35/35/1
f 38/38/1 36/36/1 37/37/1
f 39/39/1 38/38/1 37/37/1
f 40/40/1 38/38/1 39/39/1
f 41/41/2 42/42/3 43/43/4
f 44/44/5 42/42/3 41/41/2
f 44/44/5 45/45/6 42/42/3
f 46/46/7 44/44/5 41/41/2
f 47/47/8 45/45/6 44/44/5
f 48/48/9 44/44/5 46/46/7
f 48/48/9 47/47/8 44/44/5
f 49/49/10 48/48/9 46/46/7
f 50/50/11 47/47/8 48/48/9
f 51/51/12 48/48/9 49/49/10
f 51/51/12 50/50/11 48/48/9
f 52/52/13 51/51/12 49/49/10
f 53/53/14 50/50/11 51/51/12
f 54/54/15 51/51/12 52/52/13
f 54/54/15 53/53/14 51/51/12
f 55/55/16 53/53/14 54/54/15
f 56/56/17 57/57/15 58/58/13
f 59/59/18 57/57/15 56/56/17
f 59/59/18 60/60/16 57/57/15
f 61/61/19 59/59/18 56/56/17
f 62/62/20 60/60/16 59/59/18
f 63/63/21 59/59/18 61/61/19
f 63/63/21 62/62/20 59/59/18
f 64/64/22 63/63/21 61/61/19
f 65/65/23 62/62/20 63/63/21
f 66/66/24 63/63/21 64/64/22
f 66/66/24 65/65/23 63/63/21
f 67/67/25 66/66/24 64/64/22
f 68/68/26 65/65/23 66/66/24
f 69/69/27 66/66/24 67/67/25
f 69/69/27 68/68/26 66/66/24
f 70/70/28 68/68/26 69/69/27
f 71/71/29 72/72/27 73/73/25
f 74/74/30 72/72/27 71/71/29
f 74/74/30 75/75/28 72/72/27
f 76/76/31 74/74/30 71/71/29
f 77/77/32 75/75/28 74/74/30
f 78/78/33 74/74/30 76/76/31
f 78/78/33 77/77/32 74/74/30
f 79/79/34 78/78/33 76/76/31
f 80/80/35 77/77/32 78/78/33
f 81/81/36 78/78/33 79/79/34
f 81/81/36 80/80/35 78/78/33
f 82/82/37 81/81/36 79/79/34
f 83/83/38 80/80/35 81/81/36
f 84/84/39 81/81/36 82/82/37
f 84/84/39 83/83/38 81/81/36
f 85/85/40 83/83/38 84/84/39
f 86/86/41 87/87/42 88/88/37
f 89/89/43 87/87/42 86/86/41
f 89/89/43 90/90/40 87/87/42
f 91/91/44 89/89/43 86/86/41
f 92/92/45 90/90/40 89/89/43
f 93/93/46 89/89/43 91/91/44
f 93/93/46 92/92/45 89/89/43
f 94/94/47 93/93/46 91/91/44
f 95/95/48 92/92/45 93/93/46
f 96/96/49 93/93/46 94/94/47
f 96/96/49 95/95/48 93/93/46
f 97/97/4 96/96/49 94/94/47
f 98/98/50 95/95/48 96/96/49
f 99/99/3 96/96/49 97/97/4
f 99/99/3 98/98/50 96/96/49
f 100/100/6 98/98/50 99/99/3
f 101/101/51 102/102/52 103/103/53
f 104/104/54 102/102/52 101/101/51
f 105/105/55 104/104/54 101/101/51
f 104/104/54 106/106/56 102/102/52
f 107/107/57 104/104/54 105/105/55
f 108/108/58 107/107/57 105/105/55
f 109/109/59 106/106/56 104/104/54
f 107/107/57 109/109/59 104/104/54
f 110/110/60 107/107/57 108/108/58
f 111/111/61 110/110/60 108/108/58
f 112/112/62 110/110/60 111/111/61
f 110/110/60 113/113/63 107/107/57
f 113/113/63 109/109/59 107/107/57
f 112/112/62 114/114/64 110/110/60
f 114/114/64 113/113/63 110/110/60
f 115/115/65 114/114/64 112/112/62
f 115/115/65 116/116/66 114/114/64
f 114/114/64 116/116/66 117/117/67
f 114/114/64 117/117/67 113/113/63
f 116/116/66 118/118/68 117/117/67
f 117/117/67 118/118/68 119/119/69
f 113/113/63 117/117/67 120/120/70
f 117/117/67 119/119/69 120/120/70
f 113/113/63 120/120/70 109/109/59
f 120/120/70 119/119/69 121/121/71
f 109/109/59 120/120/70 122/122/72
f 120/120/70 121/121/71 122/122/72
f 109/109/59 122/122/72 106/106/56
f 122/122/72 121/121/71 123/123/73
f 106/106/56 122/122/72 124/124/74
f 122/122/72 123/123/73 124/124/74
f 124/124/74 123/123/73 125/125/75
f 126/126/76 127/127/77 128/128/78
f 129/129/79 127/127/77 126/126/76
f 130/130/80 129/129/79 126/126/76
f 129/129/79 131/131/65 127/127/77
f 132/132/81 129/129/79 130/130/80
f 133/133/82 132/132/81 130/130/80
f 134/134/83 131/131/65 129/129/79
f 132/132/81 134/134/83 129/129/79
f 135/135/84 132/132/81 133/133/82
f 136/136/85 135/135/84 133/133/82
f 137/137/86 135/135/84 136/136/85
f 135/135/84 138/138/87 132/132/81
f 138/138/87 134/134/83 132/132/81
f 137/137/86 139/139/88 135/135/84
f 139/139/88 138/138/87 135/135/84
f 140/140/89 139/139/88 137/137/86
f 140/140/89 141/141/90 139/139/88
f 139/139/88 141/141/90 142/142/91
f 139/139/88 142/142/91 138/138/87
f 141/141/90 143/143/92 142/142/91
f 142/142/91 143/143/92 144/144/93
f 138/138/87 142/142/91 145/145/94
f 142/142/91 144/144/93 145/145/94
f 138/138/87 145/145/94 134/134/83
f 145/145/94 144/144/93 146/146/95
f 134/134/83 145/145/94 147/147/96
f 145/145/94 146/146/95 147/147/96
f 134/134/83 147/147/96 131/131/65
f 147/147/96 146/146/95 148/148/97
f 131/131/65 147/147/96 149/149/66
f 147/147/96 148/148/97 149/149/66
f 149/149/66 148/148/97 150/150/68
f 151/151/98 152/152/86 153/153/99
f 154/154/100 152/152/86 151/151/98
f 155/155/101 154/154/100 151/151/98
f 154/154/100 156/156/89 152/152/86
f 157/157/102 154/154/100 155/155/101
f 158/158/103 157/157/102 155/155/101
f 159/159/104 156/156/89 154/154/100
f 157/157/102 159/159/104 154/154/100
f 160/160/105 157/157/102 158/158/103
f 161/161/106 160/160/105 158/158/103
f 162/162/107 160/160/105 161/161/106
f 160/160/105 163/163/108 157/157/102
f 163/163/108 159/159/104 157/157/102
f 162/162/107 164/164/109 160/160/105
f 164/164/109 163/163/108 160/160/105
f 165/165/110 164/164/109 162/162/107
f 165/165/110 166/166/111 164/164/109
f 164/164/109 166/166/111 167/167/112
f 164/164/109 167/167/112 163/163/108
f 166/166/111 168/168/113 167/167/112
f 167/167/112 168/168/113 169/169/114
f 163/163/108 167/167/112 170/170/115
f 167/167/112 169/169/114 170/170/115
f 163/163/108 170/170/115 159/159/104
f 170/170/115 169/169/114 171/171/116
f 159/159/104 170/170/115 172/172/117
f 170/170/115 171/171/116 172/172/117
f 159/159/104 172/172/117 156/156/89
f 172/172/117 171/171/116 173/173/118
f 156/156/89 172/172/117 174/174/90
f 172/172/117 173/173/118 174/174/90
f 174/174/90 173/173/118 175/175/92
f 176/176/119 177/177/107 178/178/120
f 179/179/121 177/177/107 176/176/119
f 180/180/122 179/179/121 176/176/119
f 179/179/121 181/181/110 177/177/107
f 182/182/123 179/179/121 180/180/122
f 183/183/124 182/182/123 180/180/122
f 184/184/125 181/181/110 179/179/121
f 182/182/123 184/184/125 179/179/121
f 185/185/126 182/182/123 183/183/124
f 186/186/127 185/185/126 183/183/124
f 187/187/128 185/185/126 186/186/127
f 185/185/126 188/188/129 182/182/123
f 188/188/129 184/184/125 182/182/123
f 187/187/128 189/189/130 185/185/126
f 189/189/130 188/188/129 185/185/126
f 190/190/56 189/189/130 187/187/128
f 190/190/56 191/191/74 189/189/130
f 189/189/130 191/191/74 192/192/131
f 193/193/75 192/192/131 191/191/74
f 194/194/132 192/192/131 193/193/75
f 192/192/131 195/195/133 189/189/130
f 194/194/132 195/195/133 192/192/131
f 189/189/130 195/195/133 188/188/129
f 188/188/129 195/195/133 184/184/125
f 196/196/134 195/195/133 194/194/132
f 184/184/125 195/195/133 197/197/135
f 195/195/133 196/196/134 197/197/135
f 184/184/125 197/197/135 181/181/110
f 197/197/135 196/196/134 198/198/136
f 181/181/110 197/197/135 199/199/111
f 197/197/135 198/198/136 199/199/111
f 199/199/111 198/198/136 200/200/113
f 201/201/4 202/202/137 203/203/1
f 204/204/138 201/201/4 203/203/1
f 202/202/137 205/205/44 203/203/1
f 206/206/7 204/204/138 203/203/1
f 205/205/44 207/207/41 203/203/1
f 208/208/139 206/206/7 203/203/1
f 207/207/41 209/209/37 203/203/1
f 210/210/13 208/208/139 203/203/1
f 209/209/37 211/211/34 203/203/1
f 212/212/140 210/210/13 203/203/1
f 211/211/34 213/213/31 203/203/1
f 214/214/19 212/212/140 203/203/1
f 213/213/31 215/215/141 203/203/1
f 216/216/142 214/214/19 203/203/1
f 215/215/141 217/217/25 203/203/1
f 217/217/25 216/216/142 203/203/1
f 218/218/134 219/219/132 220/220/143
f 221/221/136 218/218/134 220/220/143
f 219/219/132 222/222/75 220/220/143
f 223/223/113 221/221/136 220/220/143
f 222/222/75 224/224/73 220/220/143
f 225/225/114 223/223/113 220/220/143
f 224/224/73 226/226/71 220/220/143
f 227/227/116 225/225/114 220/220/143
f 226/226/71 228/228/69 220/220/143
f 229/229/118 227/227/116 220/220/143
f 228/228/69 230/230/68 220/220/143
f 231/231/92 229/229/118 220/220/143
f 230/230/68 232/232/97 220/220/143
f 233/233/93 231/231/92 220/220/143
f 232/232/97 234/234/95 220/220/143
f 234/234/95 233/233/93 220/220/143
